<svg xmlns="http://www.w3.org/2000/svg" data-name="Layer 1" viewBox="0 0 391.25 70"><path d="M374.71 38a16.5 16.5 0 0 1-4.6-.6l4.5-10 4.5 10a14.6 14.6 0 0 1-4.4.6m16 7.6-10.5-22.9c-1.2-2.5-2.8-3.6-5.2-3.6h-.4c-2.5 0-4.1 1.1-5.3 3.6l-10.5 22.9c-1 2.3-.3 4.3 1.8 5.1a3.53 3.53 0 0 0 4.8-1.9l2.4-5a24.1 24.1 0 0 0 7.2 1.1 20.4 20.4 0 0 0 6.9-1.1l2.3 5a3.53 3.53 0 0 0 4.8 1.9 3.79 3.79 0 0 0 1.7-5.1m-38.9-1.9h-16.1l15.9-14.3c2.3-2 3.2-3.7 3.2-5.8v-.3c0-2.6-1.6-4.2-4.5-4.2H330a3.62 3.62 0 0 0-3.8 3.8 3.47 3.47 0 0 0 3.8 3.6h14.9l-15.4 13.9c-3 2.7-3.7 4.3-3.7 6.3v.4c0 2.6 1.7 4.2 4.4 4.2h21.5a3.6 3.6 0 0 0 3.8-3.7 3.43 3.43 0 0 0-3.7-3.9m-33.7 0H302l15.9-14.3c2.3-2 3.2-3.7 3.2-5.8v-.3c0-2.6-1.6-4.2-4.5-4.2h-20.3a3.62 3.62 0 0 0-3.8 3.8 3.47 3.47 0 0 0 3.8 3.6h14.9l-15.4 13.9c-3 2.7-3.7 4.3-3.7 6.3v.4c0 2.6 1.7 4.2 4.4 4.2H318a3.6 3.6 0 0 0 3.8-3.7c.2-2.4-1.2-3.9-3.7-3.9m-36.3-25a3.75 3.75 0 0 0-4 3.9v24.8a3.81 3.81 0 0 0 4 3.9 3.75 3.75 0 0 0 4-3.9V22.6a3.92 3.92 0 0 0-4-3.9m-21.3 15.7h-9v-8.1h9a3.83 3.83 0 0 1 3.9 4.1 3.75 3.75 0 0 1-3.9 4m0-15.4h-12.9a3.62 3.62 0 0 0-3.8 3.8v24.7a3.7 3.7 0 0 0 3.9 3.8 3.62 3.62 0 0 0 3.8-3.8v-5.8h9c7 0 11.4-4.9 11.4-11.4S267.41 19 260.51 19m-48 25c-5.1 0-8.7-3.8-8.7-9a8.7 8.7 0 1 1 17.4 0c0 5.2-3.4 9-8.7 9m0-25.3a16 16 0 0 0-16.4 16.3 16.4 16.4 0 0 0 32.8-.1c0-9.3-7.1-16.2-16.4-16.2m-37.1 24.9h-6.6V26.4h6.6c5.3 0 8.9 3.2 8.9 8.5s-3.5 8.7-8.9 8.7m0-24.6h-10.5a3.87 3.87 0 0 0-3.9 4v24.2a3.7 3.7 0 0 0 3.9 3.8h10.5c9.4 0 16.5-6.5 16.5-16.1s-7.1-15.9-16.5-15.9m-35.9 25c-5.1 0-8.7-3.8-8.7-9a8.7 8.7 0 1 1 17.4 0c0 5.2-3.4 9-8.7 9m0-25.3a16 16 0 0 0-16.4 16.3 16.4 16.4 0 0 0 32.8-.1c0-9.3-7.1-16.2-16.4-16.2m-37 24.9h-6.6V26.4h6.6c5.3 0 8.9 3.2 8.9 8.5s-3.6 8.7-8.9 8.7m0-24.6H92a3.87 3.87 0 0 0-3.9 4v24.2A3.7 3.7 0 0 0 92 51h10.5c9.4 0 16.5-6.5 16.5-16.1S111.81 19 102.51 19"></path><path d="M28.56 3c18.54 0 32.8 12.79 32.8 31.75S47.1 67 28.54 67H7.7a7.36 7.36 0 0 1-7.69-7V11a7.58 7.58 0 0 1 7.18-8z" style="fill:#ff6900"></path><path d="M49.9 27.89c-.1.79-1 .79-1.44.1-1.3-2.19-3-2.6-5.69-2.8-2-.1-4.33.1-6.58.1h-.1l-.16-.09a.45.45 0 0 1-.16-.3c.4-1.89 2-5.37 3.69-5.69.79-.1 2.6-.3 3.59-.3 4.58-.01 7.05 5.29 6.85 8.98M23.92 46a31.9 31.9 0 0 0 10.38 1 27.6 27.6 0 0 0 12.87-4.2C45.73 46.61 40 49 34.6 49.57c0 .3-.1.49-.1.79a21.5 21.5 0 0 0 9.77-2.8c-1 3.69-6 5.2-10.58 5.5a6 6 0 0 1-.4.79A23 23 0 0 0 40 53c-2.11 3.9-11.08 6.6-18.66 3a24 24 0 0 0 2.6-10ZM49 19.41A8.76 8.76 0 0 0 42.71 17c-3 0-5.48.79-9.18.89-2.5.1-4.79-5.37-7.78-6.09a3.88 3.88 0 0 0-6.07-1.8c-1.69-1-4.33-.49-4.33 1.44-1.89-.59-4.33.4-3.29 3-4.69.1-5.48 4.33-2.4 4.69-4.17 2.25-2.27 6.25 1.13 5.51.61 6 3.29 13.78-1.1 15.69a11.75 11.75 0 0 1-6.29-.2L0 39.19v3.09a30.8 30.8 0 0 0 8.66 1.15c5.77-.59 6.09-5.37 5.77-9.58S12.75 25 13.24 21.57l-.2-.2c-2.09 2.19-3.49 1.6-3.69.89-.23-1.36 2.21-3.15 3.65-3.75 0-.1.1-.2.1-.3-1.3.2-2.89 0-3-.89s2.19-2.19 5.2-1.89c.1 0 .1-.1.2-.1l-.58-.33a1 1 0 0 1-.66-1.44 2.14 2.14 0 0 1 1.74-.65 6.7 6.7 0 0 1 2.73.53c.1 0 .1-.1.2-.1a3.6 3.6 0 0 1-.59-.59.76.76 0 0 1 0-1 2.08 2.08 0 0 1 2.4.4l.49.49h.16l.14-.09a1.08 1.08 0 0 1-.3-.66.59.59 0 0 1 .29-.79h.1a1.21 1.21 0 0 1 1.2.49 4.9 4.9 0 0 1 .59 1.24 8.28 8.28 0 0 0-6.12 3.12 9.54 9.54 0 0 0-1.2 8.2 58.6 58.6 0 0 0 2.89 9v.1c2.42 6.88 7 23.86-15.21 32.86A9.1 9.1 0 0 0 7.5 67h2.29a28.86 28.86 0 0 0 9.87-8.18C29.84 63.26 39.09 61 43.1 53.58a9.77 9.77 0 0 0 4.53-7.26 7.49 7.49 0 0 0 1.44-6.47c-.1-.4-.49-.4-1.1-.1-8.28 5-15.56 5.77-24.24 3.2a66 66 0 0 0-1.2-8.1c-.2-3.49.89-5.2 7.22-3.1a19.8 19.8 0 0 1 7.58 4c.66.49 1.59 1.1 2.09.66a1.92 1.92 0 0 0 .4-1.44A16.7 16.7 0 0 0 38 28.71a52 52 0 0 1 5.69 0 3.22 3.22 0 0 1 2.89 2.19c.66 2 4.59 1.44 4.89-.2.59-3.49.79-8.1-2.6-11.29zm-44.3 30a37 37 0 0 0-4.69 0v2.09c2.68-.59 4.33-.89 4.33-.89Z"></path><path d="M29.65 27.56c-3.49-.79-7.36-1.8-9.38-4.79 0-.1-.1-.1-.2-.1a.9.9 0 0 0 .1.49l-.3.1a2 2 0 0 1-.1-2.4 2.57 2.57 0 0 1 3.29-.3l-.1.3a2.2 2.2 0 0 0-1.44.1.53.53 0 0 0-.2.79C23 25 28 25.66 33.88 25.16a.71.71 0 0 0 .76-.49 11.33 11.33 0 0 1 2.79-5.3 15.6 15.6 0 0 1-2.89.2c-3 .2-4.79-.2-5.3-.59l.1-.3a.71.71 0 0 0 .66 0 .38.38 0 0 0-.1-.3c-.56-.53-3.16-3.22-3.16-3.22-.3-2.37-3.65-2.37-4.89-.17l-.4-.1a3.4 3.4 0 0 1 .49-1.2 6.28 6.28 0 0 0-4.62 5.37C16.13 29.25 31.59 26.85 36 31c.1.1.3.4.4.2s-1.79-2.6-6.78-3.69Zm-5.37-12.3a2.41 2.41 0 0 1 2.29 1.6c.51 1.1.4 2.19-.3 2.5A2.24 2.24 0 0 1 24 17.78c-.1-.2-.1-.3-.2-.49h.1a.66.66 0 0 0 .69.17.75.75 0 0 0 0-1 .92.92 0 0 0-.79-.59l-.1-.1a1.34 1.34 0 0 1 .59-.49M47.2 42.79A27.6 27.6 0 0 1 34.33 47 35.2 35.2 0 0 1 24 46a15.3 15.3 0 0 1-.3 3 41.5 41.5 0 0 0 8.88 1.1 14.9 14.9 0 0 1-4.33 7.59c5.3.19 10.22-1.9 11.75-4.69a20.4 20.4 0 0 1-6.7.89c.1-.3.3-.49.4-.79 4.59-.2 9.58-1.7 10.58-5.5a21.5 21.5 0 0 1-9.77 2.8c0-.3.1-.49.1-.79 5.35-.66 11.07-3 12.57-6.8" style="fill:#fff"></path></svg>